<svg width="170" height="47" viewBox="0 0 170 47" fill="none" xmlns="http://www.w3.org/2000/svg">
<path d="M22.9481 35.5194H16.7598L21.7154 29.3965C21.7154 29.3965 24.2369 31.4935 24.3135 32.6722L22.7793 34.6316L22.9481 35.5194Z" fill="#C84E2A"/>
<path d="M12.8129 35.5199H8.48625L7.77539 33.8972C9.03695 33.2868 10.2477 32.577 11.3963 31.7747C11.3963 31.7747 12.4192 32.5605 11.5548 34.0248C11.5293 34.0248 12.8129 35.5199 12.8129 35.5199Z" fill="#C84E2A"/>
<path d="M78.3691 10.1526H81.4792C83.8327 10.1526 85.5979 11.6649 85.5979 14.1854C85.5979 16.7059 83.8327 18.2182 81.4792 18.2182H78.3691V10.1526ZM81.227 16.3698C82.5719 16.3698 83.3284 15.5297 83.3284 14.1854C83.3284 12.8411 82.4878 12.001 81.227 12.001H80.4705V16.4539H81.227V16.3698Z" fill="white"/>
<path d="M90.2223 18.3025C87.9528 18.3025 86.0195 16.6222 86.0195 14.1857C86.0195 11.7492 87.9528 10.0688 90.1382 10.0688C91.9034 10.0688 92.912 10.825 93.5845 11.8332L91.9874 12.9254C91.6512 12.4213 91.1469 12.0012 90.1382 12.0012C88.9615 12.0012 88.205 13.0094 88.205 14.2697C88.205 15.5299 88.9615 16.5381 90.2223 16.5381C91.2309 16.5381 91.7353 16.034 92.1555 15.4459L93.8366 16.5381C92.912 17.7144 91.8193 18.3025 90.2223 18.3025Z" fill="white"/>
<path d="M99.1308 10.1526H101.484L98.7946 13.6813L101.821 18.2182H99.2989L97.3657 15.2776L96.6932 16.1178V18.2182H94.5078V10.1526H96.6932V13.5133L99.1308 10.1526Z" fill="white"/>
<path d="M107.368 17.2103H104.594L104.174 18.2185H102.072L106.023 9.98489C106.023 9.90087 106.107 9.90087 106.191 9.98489L110.142 18.2185H107.872L107.368 17.2103ZM105.182 15.698H106.611L105.855 14.0177L105.182 15.698Z" fill="white"/>
<path d="M112.664 18.2182H110.479V10.1526H113.757C115.774 10.1526 116.951 11.4128 116.951 13.0092C116.951 14.6895 115.774 15.8657 113.757 15.8657H112.664V18.2182ZM113.673 14.1014C114.429 14.1014 114.765 13.6813 114.765 13.0092C114.765 12.337 114.345 11.9169 113.673 11.9169H112.664V14.0174H113.673V14.1014Z" fill="white"/>
<path d="M115.352 17.2104H115.604C115.772 17.2104 115.856 17.2945 115.856 17.4625C115.856 17.5465 115.772 17.6305 115.688 17.6305L115.856 17.8826H115.688L115.52 17.6305H115.436V17.8826H115.268V17.2104H115.352ZM115.604 17.5465C115.688 17.5465 115.688 17.5465 115.688 17.4625C115.688 17.3785 115.604 17.3785 115.604 17.3785H115.52V17.5465H115.604Z" fill="white"/>
<path d="M115.604 18.2168C115.268 18.2168 114.932 17.8808 114.932 17.5447C114.932 17.2086 115.268 16.8726 115.604 16.8726C115.94 16.8726 116.277 17.2086 116.277 17.5447C116.277 17.8808 115.94 18.2168 115.604 18.2168ZM115.604 16.9566C115.268 16.9566 115.016 17.2086 115.016 17.5447C115.016 17.8808 115.268 18.1328 115.604 18.1328C115.94 18.1328 116.192 17.8808 116.192 17.5447C116.108 17.2086 115.856 16.9566 115.604 16.9566Z" fill="white"/>
<path d="M115.604 18.2168C115.184 18.2168 114.932 17.8808 114.932 17.5447C114.932 17.1246 115.268 16.8726 115.604 16.8726C116.024 16.8726 116.277 17.2086 116.277 17.5447C116.277 17.9648 115.94 18.2168 115.604 18.2168ZM115.604 16.8726C115.268 16.8726 114.932 17.2086 114.932 17.5447C114.932 17.8808 115.268 18.2168 115.604 18.2168C115.94 18.2168 116.277 17.8808 116.277 17.5447C116.192 17.2086 115.94 16.8726 115.604 16.8726ZM115.604 18.1328C115.268 18.1328 115.016 17.8808 115.016 17.5447C115.016 17.2086 115.268 16.9566 115.604 16.9566C115.94 16.9566 116.192 17.2086 116.192 17.5447C116.108 17.8808 115.856 18.1328 115.604 18.1328ZM115.604 16.9566C115.268 16.9566 115.016 17.2086 115.016 17.5447C115.016 17.8808 115.268 18.1328 115.604 18.1328C115.94 18.1328 116.192 17.8808 116.192 17.5447C116.192 17.2086 115.856 16.9566 115.604 16.9566Z" fill="white"/>
<path d="M55.9686 24.504C55.354 23.9292 54.8633 23.2356 54.526 22.4656C54.526 22.4331 55.3288 20.3296 55.1265 19.3267C54.9307 18.4279 56.4711 17.8223 56.4711 17.8223C56.4711 17.8223 56.7387 16.5198 56.2036 16.2528C55.5037 16.1782 54.7985 16.3313 54.193 16.6891C54.193 16.7217 53.6904 15.6863 50.975 15.2499C51.0538 14.8923 51.212 14.5569 51.4379 14.2684C51.6638 13.9799 51.9518 13.7456 52.2805 13.5828C53.0834 13.1464 52.3458 12.4105 52.0455 12.3454C51.7452 12.2802 49.6368 11.1732 47.8614 14.299C46.7001 14.1866 45.6018 13.7206 44.7152 12.964C43.5401 11.7983 41.0271 8.32072 39.3887 8.15145C37.7502 7.98206 36.0727 7.98865 34.4604 10.027C32.8482 12.0653 29.604 16.1095 29.604 16.1095C29.604 16.1095 31.3141 11.9286 33.39 9.95535C33.39 9.95535 29.5714 11.0625 27.1953 12.8338C24.8193 14.6051 23.4876 15.5495 22.1822 15.5495C20.8767 15.5495 19.1665 14.2471 18.1939 14.8136C17.2213 15.3801 9.00976 20.7659 8.30481 22.5046C7.59973 24.2435 6.96657 28.2812 6.19642 27.9946C5.42614 27.7081 5.42613 27.0112 5.09317 27.2131C4.76032 27.4149 4.15322 28.1509 4.95616 28.6459C5.75898 29.1407 7.67153 28.8412 9.27729 25.2008C9.27729 25.2008 8.87912 30.1111 9.37527 31.2833C9.8713 32.4556 10.7199 32.8853 9.84524 35.1908C8.9705 37.4962 8.27215 39.2024 8.27215 39.2024H15.2761L14.0358 37.1119C14.0358 37.1119 19.3624 34.6698 20.1325 33.6017C20.9028 32.5337 22.8741 27.9881 25.2567 27.4541C25.6874 27.3564 24.1796 28.2877 23.5138 29.2254C22.8057 30.5016 22.201 31.8321 21.7057 33.2045C21.7057 33.2045 26.5295 33.7711 33.6575 30.5995C34.667 31.5332 35.6072 32.5389 36.4708 33.6083C37.3129 34.7805 38.3509 39.0916 38.3509 39.0916H46.0533L46.2556 38.4404C45.7839 37.9083 45.184 37.5048 44.5127 37.2682C43.3051 36.8058 42.1368 35.2689 42.0975 34.3637C41.9876 33.508 42.2223 32.6438 42.7504 31.9606C44.1115 30.2361 44.907 28.1349 45.0285 25.9432C45.0285 25.9107 45.6812 28.4505 50.2505 30.2218C52.2478 31.0229 52.3523 31.2508 52.9854 31.902C52.9854 31.902 56.0338 31.4006 57.6395 27.5258C58.9345 26.9799 60.0924 26.155 61.0303 25.1101C61.968 24.0653 62.6626 22.8263 63.0639 21.4823C63.0639 21.4823 58.2793 24.5431 55.9686 24.504ZM50.3744 24.5431C49.7217 24.1392 49.5389 22.3028 49.4998 22.3028C50.9424 23.97 51.7779 24.1392 51.7779 24.1392C51.7779 24.1392 51.0402 24.9403 50.3744 24.5431Z" fill="#C84E2A"/>
<path d="M69.7879 4.54834H69.4551V43.9677H69.7879V4.54834Z" fill="#CCCCCC"/>
<path d="M157.392 43.6059C156.466 43.6059 155.579 43.471 154.73 43.201C153.881 42.9311 153.193 42.5454 152.666 42.0441L153.361 41.0029C153.836 41.4271 154.422 41.7613 155.116 42.0055C155.823 42.2626 156.569 42.3912 157.354 42.3912C158.64 42.3912 159.585 42.0891 160.19 41.4849C160.794 40.8936 161.096 39.9681 161.096 38.7083V36.1823L161.289 34.447L161.154 32.7116V29.6457H162.466V38.5348C162.466 40.283 162.035 41.562 161.173 42.3719C160.325 43.1946 159.064 43.6059 157.392 43.6059ZM157.142 39.3832C156.177 39.3832 155.309 39.1775 154.537 38.7661C153.766 38.3419 153.155 37.757 152.705 37.0115C152.267 36.2659 152.049 35.4111 152.049 34.447C152.049 33.4829 152.267 32.6344 152.705 31.9017C153.155 31.1562 153.766 30.5777 154.537 30.1663C155.309 29.755 156.177 29.5493 157.142 29.5493C158.042 29.5493 158.852 29.7357 159.572 30.1085C160.292 30.4813 160.865 31.034 161.289 31.7668C161.714 32.4995 161.926 33.3929 161.926 34.447C161.926 35.501 161.714 36.3944 161.289 37.1272C160.865 37.8599 160.292 38.4191 159.572 38.8047C158.852 39.1903 158.042 39.3832 157.142 39.3832ZM157.277 38.1684C158.023 38.1684 158.685 38.0141 159.264 37.7056C159.842 37.3843 160.299 36.9472 160.633 36.3944C160.968 35.8288 161.135 35.1797 161.135 34.447C161.135 33.7142 160.968 33.0715 160.633 32.5188C160.299 31.966 159.842 31.5354 159.264 31.2269C158.685 30.9055 158.023 30.7448 157.277 30.7448C156.544 30.7448 155.881 30.9055 155.29 31.2269C154.711 31.5354 154.254 31.966 153.92 32.5188C153.599 33.0715 153.438 33.7142 153.438 34.447C153.438 35.1797 153.599 35.8288 153.92 36.3944C154.254 36.9472 154.711 37.3843 155.29 37.7056C155.881 38.0141 156.544 38.1684 157.277 38.1684Z" fill="#AA3EE2"/>
<path d="M145.205 29.5496C146.028 29.5496 146.748 29.7102 147.366 30.0316C147.996 30.3401 148.485 30.8157 148.832 31.4585C149.192 32.1012 149.372 32.9111 149.372 33.888V39.769H148.002V34.023C148.002 32.9561 147.732 32.1526 147.192 31.6127C146.665 31.06 145.919 30.7836 144.954 30.7836C144.234 30.7836 143.604 30.9314 143.064 31.2271C142.537 31.5099 142.125 31.9277 141.829 32.4804C141.546 33.0203 141.405 33.6759 141.405 34.4472V39.769H140.035V29.646H141.347V32.4226L141.135 31.902C141.456 31.1693 141.971 30.5972 142.678 30.1859C143.385 29.7617 144.228 29.5496 145.205 29.5496Z" fill="#AA3EE2"/>
<path d="M134.856 39.769V29.6459H136.225V39.769H134.856ZM135.55 27.4092C135.267 27.4092 135.029 27.3127 134.836 27.1199C134.643 26.9271 134.547 26.6957 134.547 26.4258C134.547 26.1558 134.643 25.9309 134.836 25.7509C135.029 25.5581 135.267 25.4617 135.55 25.4617C135.833 25.4617 136.071 25.5517 136.264 25.7316C136.457 25.9116 136.553 26.1365 136.553 26.4065C136.553 26.6893 136.457 26.9271 136.264 27.1199C136.084 27.3127 135.846 27.4092 135.55 27.4092Z" fill="#AA3EE2"/>
<path d="M126.988 29.5496C127.811 29.5496 128.532 29.7102 129.149 30.0316C129.779 30.3401 130.268 30.8157 130.615 31.4585C130.975 32.1012 131.155 32.9111 131.155 33.888V39.769H129.785V34.023C129.785 32.9561 129.515 32.1526 128.975 31.6127C128.448 31.06 127.702 30.7836 126.738 30.7836C126.017 30.7836 125.387 30.9314 124.847 31.2271C124.32 31.5099 123.908 31.9277 123.612 32.4804C123.329 33.0203 123.188 33.6759 123.188 34.4472V39.769H121.818V29.646H123.13V32.4226L122.918 31.902C123.239 31.1693 123.754 30.5972 124.461 30.1859C125.169 29.7617 126.011 29.5496 126.988 29.5496Z" fill="#AA3EE2"/>
<path d="M114.227 39.7688V29.6457H115.538V32.4031L115.403 31.921C115.686 31.1497 116.162 30.5648 116.831 30.1663C117.5 29.755 118.329 29.5493 119.319 29.5493V30.8798C119.268 30.8798 119.216 30.8798 119.165 30.8798C119.114 30.8669 119.062 30.8605 119.011 30.8605C117.943 30.8605 117.107 31.1883 116.503 31.8439C115.898 32.4866 115.596 33.4057 115.596 34.6012V39.7688H114.227Z" fill="#AA3EE2"/>
<path d="M109.194 39.7688V37.5321L109.136 37.1657V33.425C109.136 32.5637 108.891 31.9017 108.403 31.439C107.927 30.9762 107.213 30.7448 106.261 30.7448C105.605 30.7448 104.982 30.8541 104.39 31.0726C103.799 31.2911 103.297 31.5804 102.885 31.9403L102.268 30.9183C102.783 30.4813 103.4 30.1471 104.12 29.9157C104.84 29.6714 105.599 29.5493 106.396 29.5493C107.708 29.5493 108.718 29.8771 109.425 30.5327C110.145 31.1754 110.505 32.1588 110.505 33.4829V39.7688H109.194ZM105.702 39.8652C104.943 39.8652 104.281 39.7431 103.715 39.4989C103.162 39.2418 102.738 38.8947 102.442 38.4576C102.146 38.0077 101.998 37.4935 101.998 36.9151C101.998 36.388 102.12 35.9124 102.365 35.4882C102.622 35.0511 103.033 34.7041 103.599 34.447C104.178 34.177 104.95 34.042 105.914 34.042H109.406V35.064H105.953C104.975 35.064 104.294 35.2375 103.908 35.5846C103.535 35.9317 103.348 36.3623 103.348 36.8765C103.348 37.455 103.573 37.9177 104.024 38.2648C104.474 38.6119 105.104 38.7854 105.914 38.7854C106.686 38.7854 107.348 38.6119 107.901 38.2648C108.467 37.9049 108.878 37.3907 109.136 36.7222L109.444 37.6671C109.187 38.3355 108.737 38.869 108.094 39.2675C107.464 39.666 106.666 39.8652 105.702 39.8652Z" fill="#AA3EE2"/>
<path d="M95.7891 39.8652C94.7345 39.8652 93.8086 39.6467 93.0112 39.2096C92.2139 38.7597 91.5901 38.1491 91.14 37.3778C90.6899 36.5937 90.4648 35.7003 90.4648 34.6976C90.4648 33.695 90.677 32.808 91.1014 32.0367C91.5387 31.2654 92.1303 30.6612 92.8762 30.2242C93.635 29.7743 94.4838 29.5493 95.4226 29.5493C96.3743 29.5493 97.2166 29.7678 97.9497 30.2049C98.6956 30.6291 99.2807 31.2333 99.7051 32.0174C100.13 32.7887 100.342 33.6821 100.342 34.6976C100.342 34.7619 100.335 34.8326 100.322 34.9097C100.322 34.974 100.322 35.0447 100.322 35.1218H91.5065V34.0999H99.5894L99.0492 34.5048C99.0492 33.7721 98.8885 33.1229 98.567 32.5573C98.2583 31.9789 97.8339 31.5289 97.2938 31.2076C96.7536 30.8862 96.1299 30.7255 95.4226 30.7255C94.7281 30.7255 94.1044 30.8862 93.5514 31.2076C92.9984 31.5289 92.5675 31.9789 92.2589 32.5573C91.9502 33.1358 91.7959 33.7978 91.7959 34.5434V34.7555C91.7959 35.5268 91.9631 36.2081 92.2975 36.7994C92.6447 37.3778 93.1205 37.8342 93.725 38.1684C94.3423 38.4898 95.0432 38.6504 95.8277 38.6504C96.445 38.6504 97.0173 38.5412 97.5446 38.3227C98.0847 38.1041 98.5477 37.7699 98.9335 37.32L99.7051 38.207C99.255 38.7469 98.6891 39.1582 98.0075 39.441C97.3388 39.7238 96.5993 39.8652 95.7891 39.8652Z" fill="#AA3EE2"/>
<path d="M80.5684 39.7689V26.2715H81.9959V38.5349H89.5579V39.7689H80.5684Z" fill="#AA3EE2"/>
</svg>
